<svg width="24" height="24" viewBox="0 0 24 24" fill="none" xmlns="http://www.w3.org/2000/svg">
<g clip-path="url(#clip0)">
<path d="M6.21122 17.6855C2.63587 13.7823 0.746696 8.86311 4.73544 4.6688C8.72418 0.474497 14.8561 0.238518 18.4315 4.14172C22.0068 8.04493 16.7482 9.69382 12.7595 13.8881C8.77071 18.0824 9.78658 21.5887 6.21122 17.6855Z" fill="#FF7260" fill-opacity="0.1"/>
<path d="M1.77283 11.7763C1.77283 5.80137 6.29353 0.957764 11.8701 0.957764V0.957764C17.4467 0.957764 21.9674 5.80137 21.9674 11.7763V11.7763C21.9674 17.7512 17.4467 22.5948 11.8701 22.5948V22.5948C6.29353 22.5948 1.77283 17.7512 1.77283 11.7763V11.7763Z" fill="#FF7260" fill-opacity="0.2"/>
<path fill-rule="evenodd" clip-rule="evenodd" d="M11.8701 19.6898C7.79093 19.6898 4.4841 16.1468 4.4841 11.7763C4.4841 7.40572 7.79093 3.86269 11.8701 3.86269C15.9493 3.86269 19.2561 7.40572 19.2561 11.7763C19.2561 16.1468 15.9493 19.6898 11.8701 19.6898ZM3.42896 11.7763C3.42896 6.78135 7.20819 2.73218 11.8701 2.73218C16.532 2.73218 20.3113 6.78135 20.3113 11.7763C20.3113 16.7712 16.532 20.8204 11.8701 20.8204C7.20819 20.8204 3.42896 16.7712 3.42896 11.7763ZM10.365 9.33329C9.89867 9.77492 9.25729 9.86867 8.71757 9.63269C8.50318 9.89519 8.32166 10.1875 8.1782 10.5022C7.96541 10.9692 7.84053 11.4764 7.81071 11.9951C7.78088 12.5137 7.84669 13.0335 8.00437 13.5249C8.16205 14.0163 8.40852 14.4696 8.72971 14.8589C9.0509 15.2482 9.44051 15.566 9.87631 15.794C10.3121 16.0219 10.7855 16.1557 11.2696 16.1877C11.7536 16.2197 12.2388 16.1492 12.6975 15.9802C13.1055 15.8299 13.4853 15.6043 13.82 15.3141C13.6452 14.6985 13.8067 14.0028 14.2861 13.5488C14.9409 12.9286 15.9412 12.9946 16.5202 13.6963C17.0991 14.3981 17.0373 15.4698 16.3825 16.0899C15.8297 16.6134 15.031 16.6481 14.4472 16.2243C14.0258 16.5823 13.5503 16.8615 13.0405 17.0493C12.4509 17.2665 11.8271 17.3572 11.2047 17.3161C10.5823 17.275 9.97364 17.103 9.41333 16.8098C8.85303 16.5167 8.35209 16.1082 7.93914 15.6076C7.52618 15.1071 7.20929 14.5243 7.00656 13.8925C6.80382 13.2607 6.71921 12.5923 6.75756 11.9255C6.79591 11.2587 6.95646 10.6065 7.23006 10.0062C7.41591 9.59839 7.65146 9.21994 7.92987 8.88045C7.57985 8.20044 7.70288 7.32791 8.26859 6.79216C8.92345 6.17197 9.92375 6.23795 10.5027 6.93969C11.0816 7.64147 11.0198 8.71314 10.365 9.33329ZM9.66619 8.48625C9.44785 8.69302 9.11449 8.67101 8.92153 8.43712C8.72853 8.20318 8.74909 7.84594 8.96739 7.6392C9.18564 7.43251 9.51913 7.45449 9.7121 7.6884C9.90505 7.92227 9.88448 8.27951 9.66619 8.48625ZM15.6837 15.2429C15.4653 15.4497 15.132 15.4277 14.939 15.1938C14.746 14.9598 14.7666 14.6026 14.9849 14.3959C15.2031 14.1892 15.5366 14.2111 15.7296 14.4451C15.9225 14.6789 15.902 15.0362 15.6837 15.2429Z" fill="#FF7260"/>
</g>
<defs>
<clipPath id="clip0">
<rect width="24" height="24" fill="white"/>
</clipPath>
</defs>
</svg>
