<svg width="24" height="24" viewBox="0 0 24 24" fill="none" xmlns="http://www.w3.org/2000/svg">
<g clip-path="url(#clip0)">
<path d="M4.35034 11.9999C4.35034 7.47343 7.77518 3.80396 11.9999 3.80396V3.80396C16.2247 3.80396 19.6495 7.47343 19.6495 11.9999V11.9999C19.6495 16.5265 16.2247 20.1959 11.9999 20.1959V20.1959C7.77518 20.1959 4.35034 16.5265 4.35034 11.9999V11.9999Z" fill="#4B4045" fill-opacity="0.2"/>
<path fill-rule="evenodd" clip-rule="evenodd" d="M11.9999 19.1715C8.30317 19.1715 5.30642 15.9607 5.30642 12C5.30642 8.03926 8.30317 4.82846 11.9999 4.82846C15.6965 4.82846 18.6933 8.03926 18.6933 12C18.6933 15.9607 15.6965 19.1715 11.9999 19.1715ZM4.35022 12C4.35022 7.47344 7.77508 3.80396 11.9999 3.80396C16.2246 3.80396 19.6495 7.47344 19.6495 12C19.6495 16.5265 16.2246 20.196 11.9999 20.196C7.77508 20.196 4.35022 16.5265 4.35022 12ZM10.6358 9.78629C10.2132 10.1865 9.63205 10.2714 9.14296 10.0577C8.94865 10.2956 8.78413 10.5605 8.65411 10.8458C8.46127 11.2689 8.3481 11.7286 8.32107 12.1986C8.29404 12.6686 8.35368 13.1397 8.49658 13.585C8.63947 14.0303 8.86284 14.4411 9.15391 14.7939C9.44497 15.1467 9.79805 15.4346 10.193 15.6413C10.5879 15.8479 11.017 15.9691 11.4556 15.9981C11.8943 16.0271 12.334 15.9632 12.7496 15.81C13.1193 15.6738 13.4636 15.4694 13.7669 15.2064C13.6084 14.6485 13.7548 14.0179 14.1892 13.6065C14.7827 13.0444 15.6892 13.1042 16.2138 13.7402C16.7385 14.3761 16.6825 15.3473 16.0891 15.9093C15.5882 16.3837 14.8644 16.4151 14.3354 16.0311C13.9535 16.3557 13.5225 16.6087 13.0605 16.7789C12.5261 16.9757 11.9608 17.0579 11.3968 17.0207C10.8328 16.9834 10.2812 16.8275 9.77342 16.5619C9.26566 16.2962 8.8117 15.926 8.43746 15.4724C8.06323 15.0188 7.77605 14.4906 7.59233 13.9181C7.4086 13.3456 7.33193 12.7399 7.36668 12.1356C7.40143 11.5313 7.54693 10.9403 7.79487 10.3962C7.9633 10.0266 8.17676 9.68368 8.42907 9.37603C8.1118 8.75976 8.22328 7.96898 8.73597 7.48344C9.32943 6.9214 10.2359 6.98119 10.7606 7.61713C11.2852 8.25311 11.2292 9.22429 10.6358 9.78629ZM10.0025 9.01867C9.80466 9.20606 9.50255 9.18611 9.32769 8.97415C9.15279 8.76214 9.17142 8.43841 9.36924 8.25105C9.56703 8.06374 9.86925 8.08366 10.0441 8.29564C10.219 8.50758 10.2003 8.83132 10.0025 9.01867ZM15.4558 15.1417C15.2579 15.3291 14.9558 15.3091 14.7809 15.0972C14.606 14.8852 14.6247 14.5614 14.8225 14.3741C15.0203 14.1868 15.3225 14.2067 15.4974 14.4187C15.6722 14.6306 15.6536 14.9543 15.4558 15.1417Z" fill="#4B4045" fill-opacity="0.5"/>
</g>
<defs>
<clipPath id="clip0">
<rect width="24" height="24" fill="white"/>
</clipPath>
</defs>
</svg>
