<svg width="25" height="24" viewBox="0 0 25 24" fill="none" xmlns="http://www.w3.org/2000/svg">
<path d="M3.54004 7.13986C3.54004 5.89832 4.54291 4.89185 5.78002 4.89185H19.2199C20.457 4.89185 21.4599 5.89832 21.4599 7.13986V21.752C21.4599 22.9935 20.457 24 19.2199 24H5.78002C4.54291 24 3.54004 22.9935 3.54004 21.752V7.13986Z" fill="#4B4045" fill-opacity="0.2"/>
<path fill-rule="evenodd" clip-rule="evenodd" d="M10.2599 2.15H14.7398C15.3584 2.15 15.8598 2.66487 15.8598 3.3V3.60012H9.13987V3.3C9.13987 2.66487 9.64131 2.15 10.2599 2.15ZM8.01988 3.60012V3.3C8.01988 2.02975 9.02276 1 10.2599 1H14.7398C15.9769 1 16.9798 2.02975 16.9798 3.3V3.60012H19.2199C20.457 3.60012 21.4599 4.67462 21.4599 6.00009V21.6C21.4599 22.9254 20.457 23.9999 19.2199 23.9999H14.7566C14.751 24 14.7454 24 14.7398 24H10.2599C10.2543 24 10.2487 24 10.2431 23.9999H5.78002C4.54291 23.9999 3.54004 22.9254 3.54004 21.6V6.00009C3.54004 4.67462 4.54291 3.60012 5.78002 3.60012H8.01988ZM8.29216 22.7999H5.78002C5.16147 22.7999 4.66003 22.2627 4.66003 21.6V6.00009C4.66003 5.33736 5.16147 4.8001 5.78002 4.8001H8.01988V21.7C8.01988 22.0984 8.11855 22.4732 8.29216 22.7999ZM9.93202 22.7999C9.47342 22.656 9.13987 22.218 9.13987 21.7V4.8001H15.8598V21.7C15.8598 22.218 15.5263 22.656 15.0677 22.7999H9.93202ZM16.7075 22.7999H19.2199C19.8385 22.7999 20.3399 22.2627 20.3399 21.6V6.00009C20.3399 5.33736 19.8385 4.8001 19.2199 4.8001H16.9798V21.7C16.9798 22.0984 16.8811 22.4732 16.7075 22.7999Z" fill="#4B4045" fill-opacity="0.5"/>
</svg>
