<svg width="24" height="24" viewBox="0 0 24 24" fill="none" xmlns="http://www.w3.org/2000/svg">
<path d="M4.36427 5.24043C4.1345 4.5648 4.30281 3.89565 4.74019 3.74584V3.74584C5.17757 3.59603 5.71839 4.02229 5.94816 4.69792L11.604 21.3291C11.8337 22.0047 11.6654 22.6739 11.228 22.8237V22.8237C10.7907 22.9735 10.2498 22.5472 10.0201 21.8716L4.36427 5.24043Z" fill="#4B4045" fill-opacity="0.2"/>
<path d="M8.87427 12.4004L6.66645 5.2464L16.9395 2.05321L15.7121 4.94291C15.3586 5.77523 15.6574 6.80097 16.4031 7.31511L19.1473 9.2072L8.87427 12.4004Z" fill="#4B4045" fill-opacity="0.2"/>
<path fill-rule="evenodd" clip-rule="evenodd" d="M8.72975 12.1182L6.97803 5.77378L15.886 2.67886L15.3539 3.90463C14.7024 5.40524 15.1712 7.21546 16.4379 8.09105L17.7369 8.98888L8.72975 12.1182ZM16.2215 4.37855L17.7293 0.905273L6.31609 4.87058L6.21437 4.53622C6.00675 3.85383 5.3453 3.48944 4.73698 3.72234C4.12865 3.95523 3.80381 4.69722 4.01143 5.37961L9.12205 22.1771C9.32966 22.8595 9.99111 23.2239 10.5994 22.991C11.2078 22.7581 11.5326 22.0161 11.325 21.3337L8.85293 13.2086L20.052 9.3177L16.9441 7.16951C16.0996 6.58578 15.7872 5.37896 16.2215 4.37855ZM5.30113 4.88585L10.4117 21.6834C10.4472 21.8 10.3917 21.9268 10.2878 21.9666C10.1838 22.0064 10.0708 21.9441 10.0353 21.8275L4.92467 5.02998C4.88919 4.91336 4.9447 4.78657 5.04866 4.74677C5.15261 4.70697 5.26565 4.76924 5.30113 4.88585Z" fill="#4B4045" fill-opacity="0.5"/>
</svg>
